<?xml version="1.0" encoding="UTF-8" standalone="no"?>
<!-- Created with Inkscape (http://www.inkscape.org/) -->

<svg
   xmlns:dc="http://purl.org/dc/elements/1.1/"
   xmlns:cc="http://creativecommons.org/ns#"
   xmlns:rdf="http://www.w3.org/1999/02/22-rdf-syntax-ns#"
   xmlns:svg="http://www.w3.org/2000/svg"
   xmlns="http://www.w3.org/2000/svg"
   xmlns:sodipodi="http://sodipodi.sourceforge.net/DTD/sodipodi-0.dtd"
   xmlns:inkscape="http://www.inkscape.org/namespaces/inkscape"
   width="583.66913"
   height="94.613861"
   id="svg3089"
   version="1.1"
   inkscape:version="0.48.5 r10040"
   sodipodi:docname="arbre_bas.svg">
  <defs
     id="defs3" />
  <sodipodi:namedview
     inkscape:document-units="mm"
     id="base"
     pagecolor="#ffffff"
     bordercolor="#666666"
     borderopacity="1.0"
     inkscape:pageopacity="0.0"
     inkscape:pageshadow="2"
     inkscape:zoom="1.0396203"
     inkscape:cx="291.83457"
     inkscape:cy="239.80326"
     inkscape:current-layer="g4589"
     showgrid="false"
     units="mm"
     fit-margin-top="0"
     fit-margin-left="0"
     fit-margin-right="0"
     fit-margin-bottom="0"
     inkscape:window-width="1366"
     inkscape:window-height="705"
     inkscape:window-x="-8"
     inkscape:window-y="-8"
     inkscape:window-maximized="1" />
  <metadata
     id="metadata4">
    <rdf:RDF>
      <cc:Work
         rdf:about="">
        <dc:format>image/svg+xml</dc:format>
        <dc:type
           rdf:resource="http://purl.org/dc/dcmitype/StillImage" />
        <dc:title />
      </cc:Work>
    </rdf:RDF>
  </metadata>
  <g
     inkscape:label="Layer 1"
     inkscape:groupmode="layer"
     id="layer1"
     transform="translate(-58.165432,-485.05525)">
    <g
       id="g4589"
       transform="translate(-17.465415,-386.35159)">
      <path
         sodipodi:nodetypes="cccc"
         inkscape:connector-curvature="0"
         id="path4371"
         d="m 338.94231,877.36218 c 2.35862,8.6961 25.67725,5.14153 33.26496,0 6.50656,-3.73976 30.4465,10.75952 31.04261,3.62319 22.06987,-54.02604 -71.89379,-41.03378 -64.30757,-3.62319 z"
         style="font-size:medium;font-style:normal;font-variant:normal;font-weight:normal;font-stretch:normal;text-indent:0;text-align:start;text-decoration:none;line-height:normal;letter-spacing:normal;word-spacing:normal;text-transform:none;direction:ltr;block-progression:tb;writing-mode:lr-tb;text-anchor:start;baseline-shift:baseline;color:#000000;fill:#3c1800;fill-opacity:1;stroke:none;stroke-width:1px;marker:none;visibility:visible;display:inline;overflow:visible;enable-background:accumulate;font-family:Sans;-inkscape-font-specification:Sans" />
      <path
         sodipodi:nodetypes="ccccccccccccccc"
         inkscape:connector-curvature="0"
         id="path4399"
         d="m 347.0625,873.3125 c -20.81741,3.3674 -41.6984,6.41677 -62.34969,10.7235 -26.30456,5.01875 -52.54039,10.40669 -78.92656,14.98916 -22.82433,4.19051 -45.88693,7.94468 -67.83812,15.70791 -12.7968,4.58069 -25.18072,10.24334 -37.30424,16.36785 -7.828065,3.99051 -15.131625,8.91771 -22.105411,14.24432 -0.952716,0.8184 -2.223769,1.41612 -2.975979,2.37351 -0.200288,1.04122 1.507156,1.75383 2.09375,0.84375 19.218382,-9.23463 38.24143,-18.90406 57.81885,-27.36709 13.41732,-5.38623 27.64583,-8.50121 41.9734,-10.21496 36.86463,-5.57093 73.72003,-11.21501 110.49995,-17.32339 13.96302,-2.37385 27.88418,-4.99031 41.7628,-7.81396 6.55143,-1.20832 13.50737,-2.06563 19.3825,-5.0931 1.67687,-0.91195 2.6462,-3.09959 1.87188,-5.01437 -0.39252,-1.63266 -2.23179,-2.65225 -3.90313,-2.42313 z"
         style="font-size:medium;font-style:normal;font-variant:normal;font-weight:normal;font-stretch:normal;text-indent:0;text-align:start;text-decoration:none;line-height:normal;letter-spacing:normal;word-spacing:normal;text-transform:none;direction:ltr;block-progression:tb;writing-mode:lr-tb;text-anchor:start;baseline-shift:baseline;color:#000000;fill:#3c1800;fill-opacity:1;stroke:none;stroke-width:1px;marker:none;visibility:visible;display:inline;overflow:visible;enable-background:accumulate;font-family:Sans;-inkscape-font-specification:Sans" />
      <path
         sodipodi:nodetypes="cccccccccccccccccc"
         inkscape:connector-curvature="0"
         id="path4403"
         d="m 399.65625,875.46875 c -3.18025,1.88359 -1.55829,7.56975 2.0625,7.6875 14.67615,2.67333 29.52909,4.19268 44.25846,6.52632 14.45353,2.0809 28.91803,4.15977 43.24507,7.00147 7.80051,1.70518 15.59889,3.66395 22.89529,6.97486 12.87229,5.31941 25.64456,10.89276 38.66531,15.84377 7.86433,2.97568 15.93232,5.36502 24.06087,7.49733 9.96074,2.83642 19.81117,6.06373 29.44883,9.86118 17.00338,6.43066 33.86597,13.3367 51.35057,18.38113 1.07539,0.23054 2.21799,0.97686 3.29435,0.69519 0.77981,-0.79748 -0.23348,-1.99563 -1.16826,-1.94646 -18.37569,-7.79155 -36.71665,-15.67369 -55.30299,-22.95454 -19.45613,-7.62197 -37.69691,-17.91556 -56.68281,-26.57912 -8.71275,-3.99621 -17.56273,-7.80321 -26.83235,-10.32188 -11.85544,-3.37292 -24.03231,-5.40759 -36.04661,-8.1126 -18.69674,-3.86478 -37.50034,-7.3467 -56.48182,-9.47971 -8.84337,-0.82949 -17.72753,-1.23654 -26.61016,-1.16819 z"
         style="font-size:medium;font-style:normal;font-variant:normal;font-weight:normal;font-stretch:normal;text-indent:0;text-align:start;text-decoration:none;line-height:normal;letter-spacing:normal;word-spacing:normal;text-transform:none;direction:ltr;block-progression:tb;writing-mode:lr-tb;text-anchor:start;baseline-shift:baseline;color:#000000;fill:#3c1800;fill-opacity:1;stroke:none;stroke-width:1px;marker:none;visibility:visible;display:inline;overflow:visible;enable-background:accumulate;font-family:Sans;-inkscape-font-specification:Sans" />
      <path
         sodipodi:nodetypes="ccccccccccc"
         inkscape:connector-curvature="0"
         id="path4407"
         d="m 282.875,884.9375 c -3.28605,1.53444 -6.39286,3.42148 -9.49431,5.29261 -5.48312,3.54542 -10.77656,7.45029 -15.38268,12.0973 -4.2648,4.3316 -7.21838,9.73975 -9.66244,15.25543 -1.18242,2.63586 -2.39776,5.26344 -3.2999,8.012 -1.9248,5.5999 -3.186,11.39794 -4.35428,17.19441 -0.35068,1.36846 -0.24923,2.82649 -0.77514,4.14825 -0.54815,0.79844 0.51507,1.56479 0.84375,0.53125 0.40848,-1.00179 0.96148,-1.9277 1.46439,-2.88684 2.23298,-4.37035 3.87242,-9.01174 6.0519,-13.40796 2.5667,-5.26437 5.18358,-10.52576 8.37121,-15.44771 1.63713,-2.36935 3.71065,-4.39601 5.84431,-6.31482 4.34506,-3.84772 9.14746,-7.12371 13.78303,-10.60231 3.00837,-2.26183 6.07698,-4.4492 8.98516,-6.84036 1.01889,-0.77492 2.03785,-1.81202 2.05557,-3.1773 0.0178,-1.10356 -0.68221,-2.07339 -1.46182,-2.79145 -0.8439,-0.66789 -1.8499,-1.24158 -2.96875,-1.0625 z"
         style="font-size:medium;font-style:normal;font-variant:normal;font-weight:normal;font-stretch:normal;text-indent:0;text-align:start;text-decoration:none;line-height:normal;letter-spacing:normal;word-spacing:normal;text-transform:none;direction:ltr;block-progression:tb;writing-mode:lr-tb;text-anchor:start;baseline-shift:baseline;color:#000000;fill:#3c1800;fill-opacity:1;stroke:none;stroke-width:1px;marker:none;visibility:visible;display:inline;overflow:visible;enable-background:accumulate;font-family:Sans;-inkscape-font-specification:Sans" />
      <path
         sodipodi:nodetypes="cccccccccccc"
         inkscape:connector-curvature="0"
         id="path4409"
         d="m 199.28125,899.90625 c -1.51765,0.49571 -2.85074,1.54236 -4.2927,2.26757 -9.09954,5.34087 -17.42131,12.00063 -24.73117,19.60213 -3.81057,3.92055 -6.89168,8.54558 -8.50129,13.78824 -2.43123,7.3204 -2.18942,15.19374 -3.24743,22.78935 -0.51148,0.89465 0.76623,1.81504 1.36634,0.99021 0.59972,-1.00127 0.57419,-2.39797 0.96553,-3.54173 1.1468,-4.85143 2.60131,-9.65386 4.65473,-14.13629 2.3933,-5.2292 5.81465,-9.9455 9.81832,-14.084 7.93359,-8.36778 17.58314,-14.83488 25.99892,-22.67548 1.05185,-0.99802 1.50229,-2.71108 0.4375,-3.875 -0.5707,-0.71487 -1.53425,-1.25639 -2.46875,-1.125 z"
         style="font-size:medium;font-style:normal;font-variant:normal;font-weight:normal;font-stretch:normal;text-indent:0;text-align:start;text-decoration:none;line-height:normal;letter-spacing:normal;word-spacing:normal;text-transform:none;direction:ltr;block-progression:tb;writing-mode:lr-tb;text-anchor:start;baseline-shift:baseline;color:#000000;fill:#3c1800;fill-opacity:1;stroke:none;stroke-width:1px;marker:none;visibility:visible;display:inline;overflow:visible;enable-background:accumulate;font-family:Sans;-inkscape-font-specification:Sans" />
      <path
         sodipodi:nodetypes="ccccccc"
         inkscape:connector-curvature="0"
         id="path4411"
         d="m 104.28125,931.375 c -2.77205,1.16813 -5.837587,1.86742 -8.1875,3.84375 -1.485263,1.49698 -1.99802,3.61157 -2.641705,5.55141 -0.619668,2.31775 -1.314493,4.61649 -1.768223,6.97461 -0.519431,2.24043 -0.922324,4.5088 -1.298851,6.77408 -0.469153,0.81478 0.533281,1.95135 1.302529,1.23115 0.680247,-0.89531 0.608412,-2.08956 1.088776,-3.07966 1.160919,-3.5019 3.235787,-6.59345 4.892502,-9.86836 1.43247,-2.5819 2.875142,-5.16996 4.581222,-7.58323 0.72496,-1.06044 1.97432,-1.53251 2.875,-2.40625 0.41457,-0.56661 -0.0555,-1.68888 -0.84375,-1.4375 z"
         style="font-size:medium;font-style:normal;font-variant:normal;font-weight:normal;font-stretch:normal;text-indent:0;text-align:start;text-decoration:none;line-height:normal;letter-spacing:normal;word-spacing:normal;text-transform:none;direction:ltr;block-progression:tb;writing-mode:lr-tb;text-anchor:start;baseline-shift:baseline;color:#000000;fill:#3c1800;fill-opacity:1;stroke:none;stroke-width:1px;marker:none;visibility:visible;display:inline;overflow:visible;enable-background:accumulate;font-family:Sans;-inkscape-font-specification:Sans" />
      <path
         sodipodi:nodetypes="cccccccccccc"
         inkscape:connector-curvature="0"
         id="path4415"
         d="m 457.78125,880.53125 c -2.91115,2.20329 -2.47281,7.08935 0.37326,9.16055 5.85848,4.97128 11.52388,10.17258 17.12674,15.4332 5.16781,5.10007 9.97364,10.69182 13.68653,16.97139 3.49,5.75497 6.43592,11.83303 10.29625,17.36216 1.18554,1.75211 2.47362,3.43097 3.76722,5.10395 1.2685,-0.21523 0.51692,-1.80043 0.29853,-2.58337 -2.10365,-8.83848 -6.26454,-16.99395 -10.70059,-24.86105 -2.48031,-4.28962 -4.64871,-8.7649 -7.04441,-13.08413 -5.22033,-8.74561 -12.96989,-15.69852 -21.35115,-21.34459 -1.83058,-1.11098 -5.48131,3.8082 -7.60227,3.41338 -0.17708,0.10417 1.32697,-5.67566 1.14989,-5.57149 z"
         style="font-size:medium;font-style:normal;font-variant:normal;font-weight:normal;font-stretch:normal;text-indent:0;text-align:start;text-decoration:none;line-height:normal;letter-spacing:normal;word-spacing:normal;text-transform:none;direction:ltr;block-progression:tb;writing-mode:lr-tb;text-anchor:start;baseline-shift:baseline;color:#000000;fill:#3c1800;fill-opacity:1;stroke:none;stroke-width:1px;marker:none;visibility:visible;display:inline;overflow:visible;enable-background:accumulate;font-family:Sans;-inkscape-font-specification:Sans" />
      <path
         sodipodi:nodetypes="scsssccsss"
         inkscape:connector-curvature="0"
         id="path4419"
         d="m 555.09375,910.375 c -4.43766,1.46962 -5.46913,8.48914 -1.4375,11 8.5207,4.71919 17.67204,8.82876 24.50452,15.98122 5.42063,5.46822 8.69379,12.78555 10.10232,20.28988 0.64609,2.54305 1.28358,5.15865 2.23691,7.57265 1.06723,0.33529 1.92989,-0.91066 1.54341,-1.8074 0.29796,-5.08713 -1.44875,-9.99792 -1.97586,-15.00899 -1.97899,-9.6864 -7.35413,-18.66265 -15.10568,-24.82553 -5.17977,-4.51374 -10.5894,-8.80714 -16.41115,-12.46134 -1.07384,-0.50158 -2.26107,-0.85603 -3.45697,-0.74049 z"
         style="font-size:medium;font-style:normal;font-variant:normal;font-weight:normal;font-stretch:normal;text-indent:0;text-align:start;text-decoration:none;line-height:normal;letter-spacing:normal;word-spacing:normal;text-transform:none;direction:ltr;block-progression:tb;writing-mode:lr-tb;text-anchor:start;baseline-shift:baseline;color:#000000;fill:#3c1800;fill-opacity:1;stroke:none;stroke-width:1px;marker:none;visibility:visible;display:inline;overflow:visible;enable-background:accumulate;font-family:Sans;-inkscape-font-specification:Sans" />
      <path
         sodipodi:nodetypes="cccccc"
         inkscape:connector-curvature="0"
         id="path4421"
         d="m 629.53125,942.6875 c -2.24617,0.16338 -2.82147,3.58807 -1.03125,4.75 3.97973,4.9724 8.07863,9.84822 12.21875,14.6875 1.34237,0.10059 1.31058,-1.88103 0.45282,-2.49 -3.95914,-5.26503 -6.51381,-11.41198 -10.29657,-16.79125 -0.41638,-0.21568 -0.88966,-0.21535 -1.34375,-0.15625 z"
         style="font-size:medium;font-style:normal;font-variant:normal;font-weight:normal;font-stretch:normal;text-indent:0;text-align:start;text-decoration:none;line-height:normal;letter-spacing:normal;word-spacing:normal;text-transform:none;direction:ltr;block-progression:tb;writing-mode:lr-tb;text-anchor:start;baseline-shift:baseline;color:#000000;fill:#3c1800;fill-opacity:1;stroke:none;stroke-width:1px;marker:none;visibility:visible;display:inline;overflow:visible;enable-background:accumulate;font-family:Sans;-inkscape-font-specification:Sans" />
      <path
         sodipodi:nodetypes="ccccccccccc"
         inkscape:connector-curvature="0"
         id="path4423"
         d="m 347.625,877.1875 c -3.30822,0.91774 -6.39111,2.66342 -9.29725,4.49588 -7.43086,4.96332 -13.60352,11.68217 -18.48491,19.13064 -3.45682,5.33442 -5.87907,11.25622 -7.67435,17.33565 -2.52066,7.89837 -4.43464,15.99477 -5.66849,24.19408 0.12306,1.10841 2.15473,0.98641 2.0625,-0.1875 1.88905,-6.39983 4.28439,-12.64872 7.32702,-18.59153 3.86742,-7.70943 8.70496,-14.97833 14.56256,-21.3199 5.87332,-5.97941 21.53031,-16.36428 27.02029,-22.7311 1.35179,-1.77256 -5.58011,1.4261 -6.90987,-0.82622 -0.594,-0.98112 -1.76602,-1.61628 -2.9375,-1.5 z"
         style="font-size:medium;font-style:normal;font-variant:normal;font-weight:normal;font-stretch:normal;text-indent:0;text-align:start;text-decoration:none;line-height:normal;letter-spacing:normal;word-spacing:normal;text-transform:none;direction:ltr;block-progression:tb;writing-mode:lr-tb;text-anchor:start;baseline-shift:baseline;color:#000000;fill:#3c1800;fill-opacity:1;stroke:none;stroke-width:1px;marker:none;visibility:visible;display:inline;overflow:visible;enable-background:accumulate;font-family:Sans;-inkscape-font-specification:Sans" />
      <path
         sodipodi:nodetypes="cccccccc"
         inkscape:connector-curvature="0"
         id="path4427"
         d="m 391.84375,870.6875 c -3.1325,1.61695 -6.37346,3.51389 -10.0183,3.3947 -4.76473,0.67052 -9.52947,1.34103 -14.2942,2.01155 3.39664,4.60945 9.14786,6.29266 14.29415,8.13125 7.50144,2.87163 14.59785,7.11517 19.98956,13.14161 6.20669,6.8213 12.01438,14.04512 16.85451,21.91074 3.32732,5.28639 6.21491,10.8396 8.70553,16.5664 0.44832,-1.59464 -0.398,-3.20248 -0.48173,-4.80448 -2.0379,-11.40654 -7.6026,-21.78385 -13.83287,-31.41507 -5.86546,-9.48876 -10.58196,-19.88809 -18.4219,-27.9884 -0.78146,-0.61615 -1.77439,-1.09529 -2.79475,-0.9483 z"
         style="font-size:medium;font-style:normal;font-variant:normal;font-weight:normal;font-stretch:normal;text-indent:0;text-align:start;text-decoration:none;line-height:normal;letter-spacing:normal;word-spacing:normal;text-transform:none;direction:ltr;block-progression:tb;writing-mode:lr-tb;text-anchor:start;baseline-shift:baseline;color:#000000;fill:#3c1800;fill-opacity:1;stroke:none;stroke-width:1px;marker:none;visibility:visible;display:inline;overflow:visible;enable-background:accumulate;font-family:Sans;-inkscape-font-specification:Sans" />
    </g>
  </g>
</svg>
