<?xml version="1.0" encoding="UTF-8" standalone="no"?>
<!-- Created with Inkscape (http://www.inkscape.org/) -->

<svg
   xmlns:dc="http://purl.org/dc/elements/1.1/"
   xmlns:cc="http://creativecommons.org/ns#"
   xmlns:rdf="http://www.w3.org/1999/02/22-rdf-syntax-ns#"
   xmlns:svg="http://www.w3.org/2000/svg"
   xmlns="http://www.w3.org/2000/svg"
   xmlns:sodipodi="http://sodipodi.sourceforge.net/DTD/sodipodi-0.dtd"
   xmlns:inkscape="http://www.inkscape.org/namespaces/inkscape"
   width="594.57379"
   height="569.89648"
   id="svg3044"
   version="1.1"
   inkscape:version="0.48.5 r10040"
   sodipodi:docname="arbre_haut.svg">
  <defs
     id="defs3046" />
  <sodipodi:namedview
     id="base"
     pagecolor="#ffffff"
     bordercolor="#666666"
     borderopacity="1.0"
     inkscape:pageopacity="0.0"
     inkscape:pageshadow="2"
     inkscape:zoom="1.33"
     inkscape:cx="520.85833"
     inkscape:cy="16.376806"
     inkscape:document-units="px"
     inkscape:current-layer="layer1"
     showgrid="false"
     fit-margin-top="0"
     fit-margin-left="0"
     fit-margin-right="0"
     fit-margin-bottom="0"
     inkscape:window-width="1366"
     inkscape:window-height="705"
     inkscape:window-x="-8"
     inkscape:window-y="-8"
     inkscape:window-maximized="1" />
  <metadata
     id="metadata3049">
    <rdf:RDF>
      <cc:Work
         rdf:about="">
        <dc:format>image/svg+xml</dc:format>
        <dc:type
           rdf:resource="http://purl.org/dc/dcmitype/StillImage" />
        <dc:title />
      </cc:Work>
    </rdf:RDF>
  </metadata>
  <g
     inkscape:label="Layer 1"
     inkscape:groupmode="layer"
     id="layer1"
     transform="translate(145.85833,-93.128234)">
    <path
       sodipodi:nodetypes="cccccccccccccccccccccccccc"
       inkscape:connector-curvature="0"
       id="path4371"
       d="m -145.60833,115.44073 c 2.23097,7.41455 7.12466,13.57289 10.69298,20.34527 8.69951,13.98305 19.61028,26.46432 31.19137,38.11982 13.207068,13.12898 28.671188,23.66132 43.946338,34.19876 19.59457,13.52676 39.27768,27.04194 57.2436404,42.72051 13.1812096,11.27684 25.1166396,23.90749 36.7007496,36.79218 32.2513,36.34912 58.87222,77.80884 77.671122,122.65447 11.08168,27.05365 17.47763,56.25693 16.77537,85.57188 -0.41378,18.64159 -1.99822,37.2302 -3.16937,55.83347 -1.52131,22.14452 -2.6382,44.33342 -2.41001,66.53696 0.006,15.38024 -17.18949,34.3811 -15.88057,49.70893 2.35862,8.6961 35.45169,5.89341 43.0394,0.75188 6.50656,-3.73976 32.70214,7.752 33.29825,0.61567 3.21172,-22.75986 -20.21902,-60.66842 -18.79648,-83.63731 1.00188,-16.90587 0.32401,-33.88046 -1.60882,-50.69768 -2.71872,-28.4404 -5.54749,-56.87308 -7.66251,-85.36654 -0.86449,-9.43671 9.67981,-44.00979 7.2737,-53.20712 -2.06724,-6.54972 -17.72547,12.87112 -23.47328,9.16881 -5.57328,-4.28817 -10.32515,-9.80676 -12.95696,-16.38031 -15.74145,-29.87058 -35.262302,-57.53271 -55.468672,-84.5109 -11.35258,-15.02964 -23.01256,-29.83665 -35.1243,-44.26093 -18.58269,-21.13307 -41.0201496,-39.18036 -66.66458,-50.99641 -19.72261,-9.64081 -40.48642,-17.9469 -57.63089,-31.99158 -15.727058,-12.47653 -28.390648,-28.21054 -40.997228,-43.71057 -5.2906,-6.51238 -10.75667,-12.87737 -16.23925,-19.22801 0.0833,0.32292 0.16667,0.64583 0.25,0.96875 z"
       style="font-size:medium;font-style:normal;font-variant:normal;font-weight:normal;font-stretch:normal;text-indent:0;text-align:start;text-decoration:none;line-height:normal;letter-spacing:normal;word-spacing:normal;text-transform:none;direction:ltr;block-progression:tb;writing-mode:lr-tb;text-anchor:start;baseline-shift:baseline;color:#000000;fill:#3c1800;fill-opacity:1;stroke:none;stroke-width:1px;marker:none;visibility:visible;display:inline;overflow:visible;enable-background:accumulate;font-family:Sans;-inkscape-font-specification:Sans" />
    <path
       sodipodi:nodetypes="cccccccccc"
       inkscape:connector-curvature="0"
       id="path4373"
       d="m -22.014582,93.128234 c -2.16339,4.13099 0.13635,8.710026 -0.0126,13.046146 1.50806,17.52323 3.83568,35.36703 0.28409,52.8006 -2.89113,14.17851 -8.88768,27.63065 -16.71075,39.76005 -2.73224,4.20544 -6.09219,8.18106 -7.74823,12.9557 -0.70589,4.7579 4.88795,9.46363 9.34375,7 5.01992,-2.3152 6.56642,-8.0665 8.77572,-12.65048 6.47997,-14.07764 11.31263,-29.08375 12.51456,-44.60359 1.82632,-22.10682 0.94371,-44.73646 -5.54673,-66.076616 -0.3259,-0.59302 -0.34438,-2.09794 -0.8998,-2.23181 z"
       style="font-size:medium;font-style:normal;font-variant:normal;font-weight:normal;font-stretch:normal;text-indent:0;text-align:start;text-decoration:none;line-height:normal;letter-spacing:normal;word-spacing:normal;text-transform:none;direction:ltr;block-progression:tb;writing-mode:lr-tb;text-anchor:start;baseline-shift:baseline;color:#000000;fill:#3c1800;fill-opacity:1;stroke:none;stroke-width:1px;marker:none;visibility:visible;display:inline;overflow:visible;enable-background:accumulate;font-family:Sans;-inkscape-font-specification:Sans" />
    <path
       sodipodi:nodetypes="ccccccccccccccccccc"
       inkscape:connector-curvature="0"
       id="path4375"
       d="m 75.016668,123.19073 c -1.57533,4.57596 -0.22231,9.5254 -0.12388,14.27043 1.32804,14.51366 6.68618,28.80926 16.217,39.94756 15.943002,18.54697 35.253602,34.12544 49.401252,54.21849 3.60217,5.06542 5.99182,10.89865 7.16829,16.99241 2.87773,13.56097 2.15641,27.56936 0.88918,41.27806 -2.73043,24.93613 -9.30298,49.21828 -15.48808,73.46351 -4.38187,16.27361 -10.00837,32.19302 -14.17131,48.52356 -1.0045,3.72547 -0.75715,7.99123 1.84347,11.03721 2.91296,3.88906 8.76692,4.34983 12.67033,1.73752 3.79755,-2.16737 5.91448,-6.35196 6.55107,-10.55898 4.67376,-18.46488 9.57102,-36.87455 13.97758,-55.40686 3.35038,-13.7776 6.45678,-27.63311 8.35635,-41.69592 3.21789,-22.40386 4.13441,-45.31972 0.71175,-67.75582 -2.15965,-12.56567 -7.16741,-25.2349 -16.90369,-33.85657 -10.83396,-9.95017 -23.92678,-17.04207 -34.74734,-27.01529 -14.025302,-12.29589 -25.446432,-27.79481 -32.023082,-45.30967 -2.15579,-6.46153 -3.03052,-13.23437 -4.29764,-19.90089 z"
       style="font-size:medium;font-style:normal;font-variant:normal;font-weight:normal;font-stretch:normal;text-indent:0;text-align:start;text-decoration:none;line-height:normal;letter-spacing:normal;word-spacing:normal;text-transform:none;direction:ltr;block-progression:tb;writing-mode:lr-tb;text-anchor:start;baseline-shift:baseline;color:#000000;fill:#3c1800;fill-opacity:1;stroke:none;stroke-width:1px;marker:none;visibility:visible;display:inline;overflow:visible;enable-background:accumulate;font-family:Sans;-inkscape-font-specification:Sans" />
    <path
       sodipodi:nodetypes="cccccccccccc"
       inkscape:connector-curvature="0"
       id="path4377"
       d="m 198.61042,113.15948 c -0.9139,3.81063 -0.47292,7.84397 -0.85389,11.74503 -0.58468,12.0696 -2.64733,24.04279 -5.84749,35.6855 -3.57548,15.17199 -8.59861,30.56621 -18.70162,42.73708 -7.48013,8.72813 -17.3848,15.12779 -28.03921,19.29406 -4.52829,2.69588 -3.39431,10.29718 1.33881,12.15557 3.66125,1.32367 7.50885,-0.63697 10.66095,-2.4087 4.83407,-3.13425 9.19152,-6.95175 13.50834,-10.74751 14.13395,-13.11476 24.28626,-30.30568 29.40119,-48.86641 4.22233,-14.25076 3.39498,-29.35936 1.49946,-43.91885 -0.71741,-5.25445 -1.29522,-10.59337 -2.65404,-15.70702 -0.10306,0.0133 -0.22191,-0.0334 -0.3125,0.0312 z"
       style="font-size:medium;font-style:normal;font-variant:normal;font-weight:normal;font-stretch:normal;text-indent:0;text-align:start;text-decoration:none;line-height:normal;letter-spacing:normal;word-spacing:normal;text-transform:none;direction:ltr;block-progression:tb;writing-mode:lr-tb;text-anchor:start;baseline-shift:baseline;color:#000000;fill:#3c1800;fill-opacity:1;stroke:none;stroke-width:1px;marker:none;visibility:visible;display:inline;overflow:visible;enable-background:accumulate;font-family:Sans;-inkscape-font-specification:Sans" />
    <path
       sodipodi:nodetypes="ccccccccccccccccccc"
       inkscape:connector-curvature="0"
       id="path4381"
       d="m 322.07917,116.06573 c -0.4251,9.35809 3.22151,18.14298 5.16598,27.16215 2.7428,11.59189 3.82299,23.48543 4.49943,35.35263 1.42859,18.25831 3.75229,36.84799 -0.0287,54.98513 -3.27185,15.91091 -11.14198,30.87589 -22.66184,42.36026 -15.70025,17.14718 -34.21035,31.34188 -52.04896,46.13988 -30.92299,24.94784 -63.05219,48.70381 -98.05598,67.65872 -13.03121,6.68746 -27.12711,11.97936 -38.14826,21.92324 -4.34653,4.77361 -2.15339,13.7563 4.2193,15.50093 5.69851,1.6407 11.41426,-1.13773 16.1237,-4.15208 8.82258,-5.60167 5.49047,3.42298 14.50796,-1.85692 22.08544,-12.8101 56.79985,-39.48002 78.4805,-52.96969 31.17108,-19.79454 59.71181,-43.9589 83.43767,-72.30818 12.13108,-14.64537 22.89011,-30.71305 29.75036,-48.53302 4.91781,-13.47456 5.40158,-28.31223 2.55721,-42.29878 -3.50879,-24.29337 -12.18262,-47.37287 -19.5665,-70.66053 -2.08787,-6.01055 -3.98308,-12.14576 -6.6697,-17.898 -0.22896,-0.54082 -1.18189,-1.1336 -1.5622,-0.40574 z"
       style="font-size:medium;font-style:normal;font-variant:normal;font-weight:normal;font-stretch:normal;text-indent:0;text-align:start;text-decoration:none;line-height:normal;letter-spacing:normal;word-spacing:normal;text-transform:none;direction:ltr;block-progression:tb;writing-mode:lr-tb;text-anchor:start;baseline-shift:baseline;color:#000000;fill:#3c1800;fill-opacity:1;stroke:none;stroke-width:1px;marker:none;visibility:visible;display:inline;overflow:visible;enable-background:accumulate;font-family:Sans;-inkscape-font-specification:Sans" />
    <path
       sodipodi:nodetypes="ccsccscccccccc"
       inkscape:connector-curvature="0"
       id="path4383"
       d="m 446.79792,120.84698 c -2.92212,3.6673 -1.19692,8.60941 -1.87589,12.8642 -0.75431,11.79631 -6.96419,22.27871 -13.31161,31.91705 -11.89171,17.77212 -28.66009,31.68515 -46.6312,42.99022 -16.44632,10.55569 -34.11867,19.09321 -50.31939,30.03916 -3.14105,2.22798 -6.04031,6.18215 -4.54941,10.18937 1.65266,5.18532 8.51629,7.8288 13.16033,4.87772 9.44903,-4.15381 17.25083,-11.1342 26.26759,-16.0563 19.3516,-12.20852 39.20747,-24.38131 54.77026,-41.4159 10.32768,-10.95515 19.33833,-24.01328 22.07483,-39.08306 2.37163,-11.79827 3.3441,-24.10535 0.94574,-35.97871 -0.0676,-0.19929 -0.29307,-0.45335 -0.53125,-0.34375 z"
       style="font-size:medium;font-style:normal;font-variant:normal;font-weight:normal;font-stretch:normal;text-indent:0;text-align:start;text-decoration:none;line-height:normal;letter-spacing:normal;word-spacing:normal;text-transform:none;direction:ltr;block-progression:tb;writing-mode:lr-tb;text-anchor:start;baseline-shift:baseline;color:#000000;fill:#3c1800;fill-opacity:1;stroke:none;stroke-width:1px;marker:none;visibility:visible;display:inline;overflow:visible;enable-background:accumulate;font-family:Sans;-inkscape-font-specification:Sans" />
  </g>
</svg>
